<svg xmlns="http://www.w3.org/2000/svg" viewBox="0 0 128 128"><defs><style>.cls-1{fill:#a0aec0;}</style></defs><title>Food List</title><g id="Food_List" data-name="Food List"><path class="cls-1" d="M8,107a1,1,0,0,1-1-1V11a1,1,0,0,1,1-1H25V5H5A4,4,0,0,0,1,9V111a4,4,0,0,0,4,4H72.86a48.68,48.68,0,0,1-3.71-8Z"/><polygon class="cls-1" points="74.59 19 69 13.41 69 19 74.59 19"/><rect class="cls-1" x="17" y="25" width="6" height="6"/><rect class="cls-1" x="17" y="41" width="6" height="6"/><path class="cls-1" d="M9,105H68.49C65.4,95,67.09,80.67,76,75.19V21H68a1,1,0,0,1-1-1V12H58.87A4,4,0,0,1,55,15H29a4,4,0,0,1-3.87-3H9ZM30,24H65a1,1,0,0,1,0,2H30A1,1,0,0,1,30,24Zm0,6H56a1,1,0,0,1,0,2H30A1,1,0,0,1,30,30Zm0,10H65a1,1,0,0,1,0,2H30A1,1,0,0,1,30,40Zm0,6H56a1,1,0,0,1,0,2H30A1,1,0,0,1,30,46Zm0,10H65a1,1,0,0,1,0,2H30A1,1,0,0,1,30,56Zm0,6H56a1,1,0,0,1,0,2H30A1,1,0,0,1,30,62Zm0,10H65a1,1,0,0,1,0,2H30A1,1,0,0,1,30,72Zm0,6H56a1,1,0,0,1,0,2H30A1,1,0,0,1,30,78Zm0,10H65a1,1,0,0,1,0,2H30A1,1,0,0,1,30,88Zm0,6H56a1,1,0,0,1,0,2H30A1,1,0,0,1,30,94ZM15,24a1,1,0,0,1,1-1h8a1,1,0,0,1,1,1v8a1,1,0,0,1-1,1H16a1,1,0,0,1-1-1Zm0,16a1,1,0,0,1,1-1h8a1,1,0,0,1,1,1v8a1,1,0,0,1-1,1H16a1,1,0,0,1-1-1Zm0,16a1,1,0,0,1,1-1h8a1,1,0,0,1,1,1v8a1,1,0,0,1-1,1H16a1,1,0,0,1-1-1Zm0,16a1,1,0,0,1,1-1h8a1,1,0,0,1,1,1v8a1,1,0,0,1-1,1H16a1,1,0,0,1-1-1Zm0,16a1,1,0,0,1,1-1h8a1,1,0,0,1,1,1v8a1,1,0,0,1-1,1H16a1,1,0,0,1-1-1Z"/><rect class="cls-1" x="17" y="57" width="6" height="6"/><rect class="cls-1" x="17" y="73" width="6" height="6"/><rect class="cls-1" x="17" y="89" width="6" height="6"/><path class="cls-1" d="M68.71,10.29C78.41,20,78,19.4,78,20V74.16A15.16,15.16,0,0,1,83,73V9a4,4,0,0,0-4-4H59v5C68.61,10,68.3,9.88,68.71,10.29Z"/><path class="cls-1" d="M116.62,75.78C111.49,79.64,107.13,79,100,79a1,1,0,0,1-1-1V69a9,9,0,0,0-9-9,1,1,0,0,0,0,2,7,7,0,0,1,7,7v7.93c-3.57-.41-12.56-3.79-19-.55-6.76,3.38-9,12-9,19.62,0,13.11,12.08,31,21,31,6,0,5-1,8-1s2,1,8,1c9,0,21-18,21-31C127,85.38,123,78.09,116.62,75.78ZM120,96c0-6.77-2.1-14-8-14a1,1,0,0,1,0-2c7.37,0,10,8.27,10,16A1,1,0,0,1,120,96Z"/><path class="cls-1" d="M121,63h-6a14,14,0,0,0-14,14h6A14,14,0,0,0,121,63Z"/><path class="cls-1" d="M50,8a1,1,0,0,0,0-2A1,1,0,0,0,50,8Z"/><path class="cls-1" d="M34,8a1,1,0,0,0,0-2A1,1,0,0,0,34,8Z"/><path class="cls-1" d="M29,13H55a2,2,0,0,0,2-2V3a2,2,0,0,0-2-2H29a2,2,0,0,0-2,2c0,8.71-.07,8.41.25,9A2,2,0,0,0,29,13ZM50,4a3,3,0,1,1-3,3A3,3,0,0,1,50,4ZM34,4a3,3,0,1,1-3,3A3,3,0,0,1,34,4Z"/></g></svg>