<svg xmlns="http://www.w3.org/2000/svg" viewBox="0 0 128 128"><defs><style>.cls-1{fill:#a0aec0;}</style></defs><title>Healty portion</title><g id="Healty_portion" data-name="Healty portion"><path class="cls-1" d="M15,57c0,.76.41,1,3,1,50,0,35,1.33,35-6,0-3.17,2-8.17,2-13,0-4-1.33-10.72-1.81-13H16.81c-2.58,12.25-2,14.91-.64,20.88.83,3.74,1.56,6.23-.55,8.81A1.88,1.88,0,0,0,15,57ZM27,34a11.32,11.32,0,0,1,4.5.46c-.2-3.05,1.35-4.73,2.79-6.17a1,1,0,0,1,1.42,0l.76.76a7,7,0,0,1,2,5.41C40,33.9,41,34,43,34c1.85,0,.81,3.48-.26,5,3.06,0,.48,8-5.74,8H36v4a1,1,0,0,1-2,0V47H33c-6.27,0-8.77-8-5.74-8C26.19,37.48,25.15,34,27,34Z"/><path class="cls-1" d="M40.37,41a5,5,0,0,0-4.27,4H37a5,5,0,0,0,4.9-4A11.58,11.58,0,0,0,40.37,41Z"/><path class="cls-1" d="M35,37.41a6.83,6.83,0,0,1,1.06-1.35,5,5,0,0,0-1-5.59l0-.06,0,.06a5,5,0,0,0-1,5.6A6.44,6.44,0,0,1,35,37.41Z"/><path class="cls-1" d="M30.16,39.1a7.06,7.06,0,0,1,3.85,2,5.07,5.07,0,0,0-1.6-3.77A5.5,5.5,0,0,0,28.1,36,4.94,4.94,0,0,0,30.16,39.1Z"/><path class="cls-1" d="M33,45h.9A5,5,0,0,0,29,41h-.9A5,5,0,0,0,33,45Z"/><path class="cls-1" d="M21.1,18H48.9C39.67,7.42,30.4,7.37,21.1,18Z"/><path class="cls-1" d="M51.5,18H54a3,3,0,0,1,3,3c0,1.89.3,3.84-1.82,4.75,2.61,12.47,2,15.31.61,21.56A24,24,0,0,0,55,52c0,2.67,2,2.41,2,5,0,3-3,3-5,3H18c-2,0-5,0-5-3,0-2.64,2-2.32,2-5s-2-8-2-13c0-4.13,1.3-10.77,1.82-13.25a2.52,2.52,0,0,1-.6-.34A62.51,62.51,0,0,0,1,63H63V1A62.6,62.6,0,0,0,35.11,8C43.35,8.07,50,16.05,51.5,18Z"/><path class="cls-1" d="M28.94,116.34c-.23-3.75-1.22-13-5.61-19.58A9.5,9.5,0,1,1,20.48,78,7,7,0,0,1,28,69.48a4.5,4.5,0,0,1,7.86-.33A8.67,8.67,0,0,1,47.6,73.22,4.59,4.59,0,0,1,53.24,78c8.21,4.71,5.11,17.43-4.18,17.8A37.06,37.06,0,0,0,42,118a1,1,0,0,1-1,1H33.25A62.6,62.6,0,0,0,63,127V65H1A62.86,62.86,0,0,0,28.94,116.34Z"/><path class="cls-1" d="M28.14,92.59a3.65,3.65,0,0,0,5.36,0,1,1,0,0,1,1.56.14,4.88,4.88,0,0,0,8.17,0,1,1,0,0,1,.64-.42c1-.19,1.49,1.33,4.68,1.4,8,0,10.27-11,3.18-14.35a1,1,0,0,1-.55-1.08,2.64,2.64,0,0,0-2.5-3.26c-1.06,0-1.26.63-2,.36a1,1,0,0,1-.59-.61,6.75,6.75,0,0,0-6.34-4.62c-3,0-3.63,1.66-4.67,1.31a1,1,0,0,1-.63-.66,2.52,2.52,0,0,0-4.87,0,1,1,0,0,1-1.18.69,5,5,0,0,0-6.09,4.94c0,1.83.9,2.24.33,3-.39.55-1,.4-1.33.4A7.43,7.43,0,0,0,14,87.48,7.3,7.3,0,0,0,26.67,92.6,1,1,0,0,1,28.14,92.59Z"/><path class="cls-1" d="M32,100.66v-5C27.48,96.54,25.78,91.39,32,100.66Z"/><path class="cls-1" d="M38.5,97l.3,4.13C44.72,92.74,42.84,97.55,38.5,97Z"/><path class="cls-1" d="M45.75,95.3c-5.65,6.94-6.91,9.45-7.1,9.45a1,1,0,0,1-1.2.08c-.57-.38-.41-.3-1-8.39a6.67,6.67,0,0,1-2.37-1.68C34,94.85,34,94.11,34,104a1,1,0,0,1-1,1c-1.2,0-.9-1.42-7-9.3a7.33,7.33,0,0,1-.73.39c4.81,7.5,5.59,17.69,5.71,20.91h9a39.24,39.24,0,0,1,6.73-21.43A8,8,0,0,1,45.75,95.3Z"/><path class="cls-1" d="M78.78,84.11C72.62,87,69,91.59,69,93.63s3.62,6.68,9.77,9.53A12,12,0,0,0,78.78,84.11ZM77,91.63a2,2,0,1,1,2-2A2,2,0,0,1,77,91.63Z"/><path class="cls-1" d="M107.43,86c.54-4.6-12.05-10.66-21.73-9.42l-1.59,3.7A28.68,28.68,0,0,1,90,79.63C99.12,79.63,103.32,83.33,107.43,86Z"/><path class="cls-1" d="M112,89.63c-6.49,0-9.29-8-22-8a26.48,26.48,0,0,0-9.13,1.61,14,14,0,0,1,0,20.78,25.75,25.75,0,0,0,4.44,1.19,5.12,5.12,0,0,1-.3-1.62,1,1,0,0,1,2,0c0,1.52,1.77,4.06,3.43,4.85,2.72,1.3,7.7,1.48,8.56.81-.27-1.52-4.58-5.62-8-5.62a1,1,0,0,1,0-2,11.27,11.27,0,0,1,6.63,2.85c6.46-2.14,9.44-6.85,14.37-6.85,6,0,6,5.94,9,6.87V97.79a3.39,3.39,0,0,0-2.29-3.2h0a1,1,0,0,1,0-1.9A3.38,3.38,0,0,0,121,89.47v-6.7C118.07,83.66,118,89.63,112,89.63Z"/><path class="cls-1" d="M65,127a62.93,62.93,0,0,0,50.12-26.17A4.17,4.17,0,0,0,112,99.63c-3.88,0-6.65,4.05-12.76,6.39,1.46,1.62,2.66,3.75.81,4.91-2.14,1.36-7.92.55-10.48-.69a8.69,8.69,0,0,1-3.14-2.84C75,106,67,97.92,67,93.63S74.71,83.11,78.66,82a23.87,23.87,0,0,1,3-1.11c2.61-6.1,2.44-6.07,3.13-6.22a28.83,28.83,0,0,1,20.77,5.16c3.81,2.67,4.23,5.24,3.68,7.16a6.47,6.47,0,0,0,2.75.66c5.24,0,4.32-7,10-7a1,1,0,0,1,1,1v4.51A62.79,62.79,0,0,0,127,65H65Z"/><path class="cls-1" d="M94,21.62H97.3a9.16,9.16,0,0,0,9.09-8.2,29.34,29.34,0,0,0-4.75.13A9.17,9.17,0,0,0,94,21.62Z"/><path class="cls-1" d="M93,23.63c-2.16,0-5.15-1.41-10.13-1.44-6,0-9.85,5.62-9.84,14.29,0,4.21,1.93,9.67,5,14.25,7.11,10.6,11.72,6.53,15,6.53,2,0,1.82.69,5.79.72C104.67,58,113,45.27,113,36.41c0-7.19-2.76-14.25-10.21-14.25C99.66,24,97,23.63,93,23.63Zm10.16.89c5.58,0,7.52,6.26,7.52,11.89a1,1,0,0,1-2,0c0-4.27-1.24-9.9-5.52-9.9A1,1,0,1,1,103.13,24.52Z"/><path class="cls-1" d="M107,18a10.86,10.86,0,0,1-1.81,2.38c7.09,1.32,9.81,8.85,9.82,16.07C115,46.53,105.8,60,98.83,60c-4.8,0-4.84-1.26-7.27-.49a13.32,13.32,0,0,1-4.32.51C79.49,60,71,45.56,71,36.48c0-8.41,3.62-16.29,11.88-16.29A39.83,39.83,0,0,1,92,21.54c0-4.4.39-6.32-1.43-8.14A4.76,4.76,0,0,0,87.16,12a1,1,0,0,1,0-2,6.8,6.8,0,0,1,6.78,6.27A11.15,11.15,0,0,1,99.59,12,62.57,62.57,0,0,0,65,1V63h62A62.75,62.75,0,0,0,107,18Z"/><path class="cls-1" d="M15.64,23.93c.24.11-2.3.07,38.36.07a1,1,0,0,0,1-1V21a1,1,0,0,0-1-1H16a1,1,0,0,0-1,1C15,22.64,14.78,23.61,15.64,23.93Z"/><path class="cls-1" d="M39.84,39.1A4.94,4.94,0,0,0,41.9,36a5.38,5.38,0,0,0-4.23,1.27A5,5,0,0,0,36,41.12,6.86,6.86,0,0,1,39.84,39.1Z"/></g></svg>